<svg xmlns="http://www.w3.org/2000/svg" width="256" height="256" fill="none" viewBox="0 0 256 256" id="dribbble">
  <rect width="224" height="224" x="16" y="16" fill="url(#paint0_linear_531_13625)" rx="70"></rect>
  <path fill="#E74D89" d="M128 65.7607C162.375 65.7607 190.188 93.5732 190.188 127.896C190.188 162.219 162.375 190.084 128 190.084C93.625 190.084 65.8125 162.271 65.8125 127.948C65.8125 93.6253 93.625 65.7607 128 65.7607Z"></path>
  <path fill="#B2215A" d="M128 194.51C91.2288 194.51 61.333 164.666 61.333 127.948C61.333 91.1768 91.2288 61.333 128 61.333C164.771 61.333 194.666 91.1768 194.666 127.896C194.666 164.614 164.771 194.51 128 194.51ZM184.198 137.01C182.271 136.385 166.593 131.75 148.729 134.562C156.177 154.979 159.198 171.646 159.771 175.083C172.583 166.489 181.698 152.843 184.198 137.01ZM150.239 180.343C149.406 175.343 146.073 157.948 138.104 137.218C138 137.271 137.843 137.323 137.739 137.323C105.604 148.521 94.0934 170.76 93.0518 172.843C102.687 180.343 114.823 184.823 128 184.823C135.864 184.875 143.416 183.26 150.239 180.343ZM85.708 166.021C87.0101 163.833 102.635 138 132.01 128.468C132.739 128.208 133.521 128 134.25 127.791C132.843 124.562 131.281 121.333 129.614 118.156C101.177 126.646 73.5726 126.281 71.0726 126.229C71.0726 126.802 71.0205 127.375 71.0205 127.948C71.0726 142.583 76.5934 155.916 85.708 166.021ZM72.2705 116.333C74.8226 116.385 98.2601 116.489 124.927 109.406C115.5 92.6351 105.291 78.5726 103.833 76.5413C87.8434 84.0413 75.9684 98.7288 72.2705 116.333ZM114.666 72.6872C116.229 74.7705 126.593 88.833 135.916 105.968C156.177 98.3643 164.718 86.9059 165.76 85.4476C155.708 76.5413 142.479 71.1247 128 71.1247C123.416 71.1247 118.937 71.6976 114.666 72.6872ZM172.062 92.0101C170.864 93.6247 161.333 105.864 140.291 114.458C141.593 117.166 142.896 119.927 144.093 122.687C144.51 123.677 144.927 124.666 145.343 125.604C164.302 123.208 183.104 127.062 184.979 127.427C184.823 114.041 180.031 101.698 172.062 92.0101Z"></path>
  <defs>
    <linearGradient id="paint0_linear_531_13625" x1="16" x2="208" y1="16" y2="240" gradientUnits="userSpaceOnUse">
      <stop stop-color="#fff"></stop>
      <stop offset="1" stop-color="#ACCCFF"></stop>
    </linearGradient>
  </defs>
</svg>
